<?xml version="1.0" encoding="UTF-8" standalone="no"?>
<!DOCTYPE svg PUBLIC "-//W3C//DTD SVG 1.1//EN"
 "http://www.w3.org/Graphics/SVG/1.1/DTD/svg11.dtd">
<!-- Generated by graphviz version 3.0.0 (20220226.1711)
 -->
<!-- Title: dependencies Pages: 1 -->
<svg width="4266pt" height="247pt"
 viewBox="0.00 0.00 4266.00 246.80" xmlns="http://www.w3.org/2000/svg" xmlns:xlink="http://www.w3.org/1999/xlink">
<g id="graph0" class="graph" transform="scale(1 1) rotate(0) translate(4 242.8)">
<title>dependencies</title>
<polygon fill="white" stroke="transparent" points="-4,4 -4,-242.8 4262,-242.8 4262,4 -4,4"/>
<text text-anchor="middle" x="2129" y="-8.2" font-family="sans-serif" font-size="14.00">dependencies</text>
<g id="clust1" class="cluster">
<title>cluster_AppModule</title>
<polygon fill="none" stroke="black" stroke-dasharray="1,5" points="8,-32.8 8,-230.8 4250,-230.8 4250,-32.8 8,-32.8"/>
</g>
<g id="clust23" class="cluster">
<title>cluster_AppModule_bootstrap</title>
<polygon fill="none" stroke="black" points="2337,-170.8 2337,-222.8 2461,-222.8 2461,-170.8 2337,-170.8"/>
</g>
<g id="clust21" class="cluster">
<title>cluster_AppModule_imports</title>
<polygon fill="none" stroke="black" points="3097,-40.8 3097,-92.8 4242,-92.8 4242,-40.8 3097,-40.8"/>
</g>
<g id="clust2" class="cluster">
<title>cluster_AppModule_declarations</title>
<polygon fill="none" stroke="black" points="16,-40.8 16,-92.8 3089,-92.8 3089,-40.8 16,-40.8"/>
</g>
<!-- AppComponent -->
<g id="node1" class="node">
<title>AppComponent</title>
<polygon fill="#ffffb3" stroke="black" points="3080.94,-84.8 2975.06,-84.8 2975.06,-48.8 3080.94,-48.8 3080.94,-84.8"/>
<text text-anchor="middle" x="3028" y="-62.6" font-family="Times,serif" font-size="14.00">AppComponent</text>
</g>
<!-- AppModule -->
<g id="node19" class="node">
<title>AppModule</title>
<polygon fill="#8dd3c7" stroke="black" points="2440.66,-149.8 2437.66,-153.8 2416.66,-153.8 2413.66,-149.8 2357.34,-149.8 2357.34,-113.8 2440.66,-113.8 2440.66,-149.8"/>
<text text-anchor="middle" x="2399" y="-127.6" font-family="Times,serif" font-size="14.00">AppModule</text>
</g>
<!-- AppComponent&#45;&gt;AppModule -->
<g id="edge1" class="edge">
<title>AppComponent&#45;&gt;AppModule</title>
<path fill="none" stroke="black" d="M3028,-84.82C3028,-102.17 3028,-125.8 3028,-125.8 3028,-125.8 2450.76,-125.8 2450.76,-125.8"/>
<polygon fill="black" stroke="black" points="2450.76,-122.3 2440.76,-125.8 2450.76,-129.3 2450.76,-122.3"/>
</g>
<!-- HomeComponent -->
<g id="node2" class="node">
<title>HomeComponent</title>
<polygon fill="#ffffb3" stroke="black" points="2957.55,-84.8 2842.45,-84.8 2842.45,-48.8 2957.55,-48.8 2957.55,-84.8"/>
<text text-anchor="middle" x="2900" y="-62.6" font-family="Times,serif" font-size="14.00">HomeComponent</text>
</g>
<!-- HomeComponent&#45;&gt;AppModule -->
<g id="edge2" class="edge">
<title>HomeComponent&#45;&gt;AppModule</title>
<path fill="none" stroke="black" d="M2900,-84.83C2900,-101.2 2900,-122.8 2900,-122.8 2900,-122.8 2450.85,-122.8 2450.85,-122.8"/>
<polygon fill="black" stroke="black" points="2450.85,-119.3 2440.85,-122.8 2450.85,-126.3 2450.85,-119.3"/>
</g>
<!-- EmployeeComponent -->
<g id="node3" class="node">
<title>EmployeeComponent</title>
<polygon fill="#ffffb3" stroke="black" points="2824.09,-84.8 2685.91,-84.8 2685.91,-48.8 2824.09,-48.8 2824.09,-84.8"/>
<text text-anchor="middle" x="2755" y="-62.6" font-family="Times,serif" font-size="14.00">EmployeeComponent</text>
</g>
<!-- EmployeeComponent&#45;&gt;AppModule -->
<g id="edge3" class="edge">
<title>EmployeeComponent&#45;&gt;AppModule</title>
<path fill="none" stroke="black" d="M2755,-85.04C2755,-100.37 2755,-119.8 2755,-119.8 2755,-119.8 2450.88,-119.8 2450.88,-119.8"/>
<polygon fill="black" stroke="black" points="2450.88,-116.3 2440.88,-119.8 2450.88,-123.3 2450.88,-116.3"/>
</g>
<!-- LoginComponent -->
<g id="node4" class="node">
<title>LoginComponent</title>
<polygon fill="#ffffb3" stroke="black" points="2668.27,-84.8 2553.73,-84.8 2553.73,-48.8 2668.27,-48.8 2668.27,-84.8"/>
<text text-anchor="middle" x="2611" y="-62.6" font-family="Times,serif" font-size="14.00">LoginComponent</text>
</g>
<!-- LoginComponent&#45;&gt;AppModule -->
<g id="edge4" class="edge">
<title>LoginComponent&#45;&gt;AppModule</title>
<path fill="none" stroke="black" d="M2611,-84.85C2611,-99.17 2611,-116.8 2611,-116.8 2611,-116.8 2450.88,-116.8 2450.88,-116.8"/>
<polygon fill="black" stroke="black" points="2450.88,-113.3 2440.88,-116.8 2450.88,-120.3 2450.88,-113.3"/>
</g>
<!-- OficinasComponent -->
<g id="node5" class="node">
<title>OficinasComponent</title>
<polygon fill="#ffffb3" stroke="black" points="2535.26,-84.8 2406.74,-84.8 2406.74,-48.8 2535.26,-48.8 2535.26,-84.8"/>
<text text-anchor="middle" x="2471" y="-62.6" font-family="Times,serif" font-size="14.00">OficinasComponent</text>
</g>
<!-- OficinasComponent&#45;&gt;AppModule -->
<g id="edge5" class="edge">
<title>OficinasComponent&#45;&gt;AppModule</title>
<path fill="none" stroke="black" d="M2423.73,-84.91C2423.73,-84.91 2423.73,-103.79 2423.73,-103.79"/>
<polygon fill="black" stroke="black" points="2420.23,-103.79 2423.73,-113.79 2427.23,-103.79 2420.23,-103.79"/>
</g>
<!-- OficinaComponent -->
<g id="node6" class="node">
<title>OficinaComponent</title>
<polygon fill="#ffffb3" stroke="black" points="2388.81,-84.8 2265.19,-84.8 2265.19,-48.8 2388.81,-48.8 2388.81,-84.8"/>
<text text-anchor="middle" x="2327" y="-62.6" font-family="Times,serif" font-size="14.00">OficinaComponent</text>
</g>
<!-- OficinaComponent&#45;&gt;AppModule -->
<g id="edge6" class="edge">
<title>OficinaComponent&#45;&gt;AppModule</title>
<path fill="none" stroke="black" d="M2372.91,-84.91C2372.91,-84.91 2372.91,-103.79 2372.91,-103.79"/>
<polygon fill="black" stroke="black" points="2369.41,-103.79 2372.91,-113.79 2376.41,-103.79 2369.41,-103.79"/>
</g>
<!-- OficinasModalityComponent -->
<g id="node7" class="node">
<title>OficinasModalityComponent</title>
<polygon fill="#ffffb3" stroke="black" points="2247.09,-84.8 2066.91,-84.8 2066.91,-48.8 2247.09,-48.8 2247.09,-84.8"/>
<text text-anchor="middle" x="2157" y="-62.6" font-family="Times,serif" font-size="14.00">OficinasModalityComponent</text>
</g>
<!-- OficinasModalityComponent&#45;&gt;AppModule -->
<g id="edge7" class="edge">
<title>OficinasModalityComponent&#45;&gt;AppModule</title>
<path fill="none" stroke="black" d="M2157,-84.85C2157,-99.17 2157,-116.8 2157,-116.8 2157,-116.8 2347.12,-116.8 2347.12,-116.8"/>
<polygon fill="black" stroke="black" points="2347.12,-120.3 2357.12,-116.8 2347.12,-113.3 2347.12,-120.3"/>
</g>
<!-- OficinaDetailComponent -->
<g id="node8" class="node">
<title>OficinaDetailComponent</title>
<polygon fill="#ffffb3" stroke="black" points="2048.52,-84.8 1891.48,-84.8 1891.48,-48.8 2048.52,-48.8 2048.52,-84.8"/>
<text text-anchor="middle" x="1970" y="-62.6" font-family="Times,serif" font-size="14.00">OficinaDetailComponent</text>
</g>
<!-- OficinaDetailComponent&#45;&gt;AppModule -->
<g id="edge8" class="edge">
<title>OficinaDetailComponent&#45;&gt;AppModule</title>
<path fill="none" stroke="black" d="M1970,-85.04C1970,-100.37 1970,-119.8 1970,-119.8 1970,-119.8 2347.08,-119.8 2347.08,-119.8"/>
<polygon fill="black" stroke="black" points="2347.08,-123.3 2357.08,-119.8 2347.08,-116.3 2347.08,-123.3"/>
</g>
<!-- EmployeeDetailComponent -->
<g id="node9" class="node">
<title>EmployeeDetailComponent</title>
<polygon fill="#ffffb3" stroke="black" points="1873.3,-84.8 1700.7,-84.8 1700.7,-48.8 1873.3,-48.8 1873.3,-84.8"/>
<text text-anchor="middle" x="1787" y="-62.6" font-family="Times,serif" font-size="14.00">EmployeeDetailComponent</text>
</g>
<!-- EmployeeDetailComponent&#45;&gt;AppModule -->
<g id="edge9" class="edge">
<title>EmployeeDetailComponent&#45;&gt;AppModule</title>
<path fill="none" stroke="black" d="M1787,-84.83C1787,-101.2 1787,-122.8 1787,-122.8 1787,-122.8 2346.93,-122.8 2346.93,-122.8"/>
<polygon fill="black" stroke="black" points="2346.93,-126.3 2356.93,-122.8 2346.93,-119.3 2346.93,-126.3"/>
</g>
<!-- OficinasFiltroComponent -->
<g id="node10" class="node">
<title>OficinasFiltroComponent</title>
<polygon fill="#ffffb3" stroke="black" points="1682.88,-84.8 1523.12,-84.8 1523.12,-48.8 1682.88,-48.8 1682.88,-84.8"/>
<text text-anchor="middle" x="1603" y="-62.6" font-family="Times,serif" font-size="14.00">OficinasFiltroComponent</text>
</g>
<!-- OficinasFiltroComponent&#45;&gt;AppModule -->
<g id="edge10" class="edge">
<title>OficinasFiltroComponent&#45;&gt;AppModule</title>
<path fill="none" stroke="black" d="M1603,-84.82C1603,-102.17 1603,-125.8 1603,-125.8 1603,-125.8 2347.32,-125.8 2347.32,-125.8"/>
<polygon fill="black" stroke="black" points="2347.32,-129.3 2357.32,-125.8 2347.32,-122.3 2347.32,-129.3"/>
</g>
<!-- AllProfilesComponent -->
<g id="node11" class="node">
<title>AllProfilesComponent</title>
<polygon fill="#ffffb3" stroke="black" points="1505.27,-84.8 1362.73,-84.8 1362.73,-48.8 1505.27,-48.8 1505.27,-84.8"/>
<text text-anchor="middle" x="1434" y="-62.6" font-family="Times,serif" font-size="14.00">AllProfilesComponent</text>
</g>
<!-- AllProfilesComponent&#45;&gt;AppModule -->
<g id="edge11" class="edge">
<title>AllProfilesComponent&#45;&gt;AppModule</title>
<path fill="none" stroke="black" d="M1434,-85.1C1434,-103.07 1434,-127.8 1434,-127.8 1434,-127.8 2347.23,-127.8 2347.23,-127.8"/>
<polygon fill="black" stroke="black" points="2347.23,-131.3 2357.23,-127.8 2347.23,-124.3 2347.23,-131.3"/>
</g>
<!-- CreateProfileComponent -->
<g id="node12" class="node">
<title>CreateProfileComponent</title>
<polygon fill="#ffffb3" stroke="black" points="1344.97,-84.8 1189.03,-84.8 1189.03,-48.8 1344.97,-48.8 1344.97,-84.8"/>
<text text-anchor="middle" x="1267" y="-62.6" font-family="Times,serif" font-size="14.00">CreateProfileComponent</text>
</g>
<!-- CreateProfileComponent&#45;&gt;AppModule -->
<g id="edge12" class="edge">
<title>CreateProfileComponent&#45;&gt;AppModule</title>
<path fill="none" stroke="black" d="M1267,-84.97C1267,-103.89 1267,-130.8 1267,-130.8 1267,-130.8 2347.03,-130.8 2347.03,-130.8"/>
<polygon fill="black" stroke="black" points="2347.03,-134.3 2357.03,-130.8 2347.03,-127.3 2347.03,-134.3"/>
</g>
<!-- CreateProfileSecundaryComponent -->
<g id="node13" class="node">
<title>CreateProfileSecundaryComponent</title>
<polygon fill="#ffffb3" stroke="black" points="1170.56,-84.8 955.44,-84.8 955.44,-48.8 1170.56,-48.8 1170.56,-84.8"/>
<text text-anchor="middle" x="1063" y="-62.6" font-family="Times,serif" font-size="14.00">CreateProfileSecundaryComponent</text>
</g>
<!-- CreateProfileSecundaryComponent&#45;&gt;AppModule -->
<g id="edge13" class="edge">
<title>CreateProfileSecundaryComponent&#45;&gt;AppModule</title>
<path fill="none" stroke="black" d="M1063,-85.11C1063,-104.95 1063,-133.8 1063,-133.8 1063,-133.8 2347.18,-133.8 2347.18,-133.8"/>
<polygon fill="black" stroke="black" points="2347.18,-137.3 2357.18,-133.8 2347.18,-130.3 2347.18,-137.3"/>
</g>
<!-- ServiciosoficinasComponent -->
<g id="node14" class="node">
<title>ServiciosoficinasComponent</title>
<polygon fill="#ffffb3" stroke="black" points="937.75,-84.8 760.25,-84.8 760.25,-48.8 937.75,-48.8 937.75,-84.8"/>
<text text-anchor="middle" x="849" y="-62.6" font-family="Times,serif" font-size="14.00">ServiciosoficinasComponent</text>
</g>
<!-- ServiciosoficinasComponent&#45;&gt;AppModule -->
<g id="edge14" class="edge">
<title>ServiciosoficinasComponent&#45;&gt;AppModule</title>
<path fill="none" stroke="black" d="M849,-84.83C849,-105.57 849,-136.8 849,-136.8 849,-136.8 2347.14,-136.8 2347.14,-136.8"/>
<polygon fill="black" stroke="black" points="2347.14,-140.3 2357.14,-136.8 2347.14,-133.3 2347.14,-140.3"/>
</g>
<!-- CarouselimagenesComponent -->
<g id="node15" class="node">
<title>CarouselimagenesComponent</title>
<polygon fill="#ffffb3" stroke="black" points="741.97,-84.8 558.03,-84.8 558.03,-48.8 741.97,-48.8 741.97,-84.8"/>
<text text-anchor="middle" x="650" y="-62.6" font-family="Times,serif" font-size="14.00">CarouselimagenesComponent</text>
</g>
<!-- CarouselimagenesComponent&#45;&gt;AppModule -->
<g id="edge15" class="edge">
<title>CarouselimagenesComponent&#45;&gt;AppModule</title>
<path fill="none" stroke="black" d="M650,-84.97C650,-106.3 650,-138.8 650,-138.8 650,-138.8 2347.06,-138.8 2347.06,-138.8"/>
<polygon fill="black" stroke="black" points="2347.06,-142.3 2357.06,-138.8 2347.06,-135.3 2347.06,-142.3"/>
</g>
<!-- FormularioComponent -->
<g id="node16" class="node">
<title>FormularioComponent</title>
<polygon fill="#ffffb3" stroke="black" points="540.32,-84.8 395.68,-84.8 395.68,-48.8 540.32,-48.8 540.32,-84.8"/>
<text text-anchor="middle" x="468" y="-62.6" font-family="Times,serif" font-size="14.00">FormularioComponent</text>
</g>
<!-- FormularioComponent&#45;&gt;AppModule -->
<g id="edge16" class="edge">
<title>FormularioComponent&#45;&gt;AppModule</title>
<path fill="none" stroke="black" d="M468,-84.96C468,-107.15 468,-141.8 468,-141.8 468,-141.8 2347.32,-141.8 2347.32,-141.8"/>
<polygon fill="black" stroke="black" points="2347.32,-145.3 2357.32,-141.8 2347.32,-138.3 2347.32,-145.3"/>
</g>
<!-- GooglemapsComponent -->
<g id="node17" class="node">
<title>GooglemapsComponent</title>
<polygon fill="#ffffb3" stroke="black" points="378.1,-84.8 225.9,-84.8 225.9,-48.8 378.1,-48.8 378.1,-84.8"/>
<text text-anchor="middle" x="302" y="-62.6" font-family="Times,serif" font-size="14.00">GooglemapsComponent</text>
</g>
<!-- GooglemapsComponent&#45;&gt;AppModule -->
<g id="edge17" class="edge">
<title>GooglemapsComponent&#45;&gt;AppModule</title>
<path fill="none" stroke="black" d="M302,-84.89C302,-107.93 302,-144.8 302,-144.8 302,-144.8 2347.11,-144.8 2347.11,-144.8"/>
<polygon fill="black" stroke="black" points="2347.11,-148.3 2357.11,-144.8 2347.11,-141.3 2347.11,-148.3"/>
</g>
<!-- OficinasBusquedaComponent -->
<g id="node18" class="node">
<title>OficinasBusquedaComponent</title>
<polygon fill="#ffffb3" stroke="black" points="207.97,-84.8 24.03,-84.8 24.03,-48.8 207.97,-48.8 207.97,-84.8"/>
<text text-anchor="middle" x="116" y="-62.6" font-family="Times,serif" font-size="14.00">OficinasBusquedaComponent</text>
</g>
<!-- OficinasBusquedaComponent&#45;&gt;AppModule -->
<g id="edge18" class="edge">
<title>OficinasBusquedaComponent&#45;&gt;AppModule</title>
<path fill="none" stroke="black" d="M116,-85.18C116,-109.08 116,-147.8 116,-147.8 116,-147.8 2346.93,-147.8 2346.93,-147.8"/>
<polygon fill="black" stroke="black" points="2346.93,-151.3 2356.93,-147.8 2346.93,-144.3 2346.93,-151.3"/>
</g>
<!-- AppComponent  -->
<g id="node28" class="node">
<title>AppComponent </title>
<polygon fill="#80b1d3" stroke="black" points="2453.44,-214.8 2344.56,-214.8 2344.56,-178.8 2453.44,-178.8 2453.44,-214.8"/>
<text text-anchor="middle" x="2399" y="-192.6" font-family="Times,serif" font-size="14.00">AppComponent </text>
</g>
<!-- AppModule&#45;&gt;AppComponent  -->
<g id="edge27" class="edge">
<title>AppModule&#45;&gt;AppComponent </title>
<path fill="none" stroke="black" stroke-dasharray="1,5" d="M2399,-149.91C2399,-149.91 2399,-168.79 2399,-168.79"/>
<polygon fill="black" stroke="black" points="2395.5,-168.79 2399,-178.79 2402.5,-168.79 2395.5,-168.79"/>
</g>
<!-- BrowserModule -->
<g id="node20" class="node">
<title>BrowserModule</title>
<polygon fill="#8dd3c7" stroke="black" points="4234.49,-84.8 4231.49,-88.8 4210.49,-88.8 4207.49,-84.8 4127.51,-84.8 4127.51,-48.8 4234.49,-48.8 4234.49,-84.8"/>
<text text-anchor="middle" x="4181" y="-62.6" font-family="Times,serif" font-size="14.00">BrowserModule</text>
</g>
<!-- BrowserModule&#45;&gt;AppModule -->
<g id="edge19" class="edge">
<title>BrowserModule&#45;&gt;AppModule</title>
<path fill="none" stroke="black" d="M4181,-85.18C4181,-109.08 4181,-147.8 4181,-147.8 4181,-147.8 2450.86,-147.8 2450.86,-147.8"/>
<polygon fill="black" stroke="black" points="2450.86,-144.3 2440.86,-147.8 2450.86,-151.3 2450.86,-144.3"/>
</g>
<!-- AppRoutingModule -->
<g id="node21" class="node">
<title>AppRoutingModule</title>
<polygon fill="#8dd3c7" stroke="black" points="4109.28,-84.8 4106.28,-88.8 4085.28,-88.8 4082.28,-84.8 3980.72,-84.8 3980.72,-48.8 4109.28,-48.8 4109.28,-84.8"/>
<text text-anchor="middle" x="4045" y="-62.6" font-family="Times,serif" font-size="14.00">AppRoutingModule</text>
</g>
<!-- AppRoutingModule&#45;&gt;AppModule -->
<g id="edge20" class="edge">
<title>AppRoutingModule&#45;&gt;AppModule</title>
<path fill="none" stroke="black" d="M4045,-84.89C4045,-107.93 4045,-144.8 4045,-144.8 4045,-144.8 2450.93,-144.8 2450.93,-144.8"/>
<polygon fill="black" stroke="black" points="2450.93,-141.3 2440.93,-144.8 2450.93,-148.3 2450.93,-141.3"/>
</g>
<!-- FormsModule -->
<g id="node22" class="node">
<title>FormsModule</title>
<polygon fill="#8dd3c7" stroke="black" points="3962.84,-84.8 3959.84,-88.8 3938.84,-88.8 3935.84,-84.8 3867.16,-84.8 3867.16,-48.8 3962.84,-48.8 3962.84,-84.8"/>
<text text-anchor="middle" x="3915" y="-62.6" font-family="Times,serif" font-size="14.00">FormsModule</text>
</g>
<!-- FormsModule&#45;&gt;AppModule -->
<g id="edge21" class="edge">
<title>FormsModule&#45;&gt;AppModule</title>
<path fill="none" stroke="black" d="M3915,-84.96C3915,-107.15 3915,-141.8 3915,-141.8 3915,-141.8 2450.73,-141.8 2450.73,-141.8"/>
<polygon fill="black" stroke="black" points="2450.73,-138.3 2440.73,-141.8 2450.73,-145.3 2450.73,-138.3"/>
</g>
<!-- ReactiveFormsModule -->
<g id="node23" class="node">
<title>ReactiveFormsModule</title>
<polygon fill="#8dd3c7" stroke="black" points="3849.31,-84.8 3846.31,-88.8 3825.31,-88.8 3822.31,-84.8 3704.69,-84.8 3704.69,-48.8 3849.31,-48.8 3849.31,-84.8"/>
<text text-anchor="middle" x="3777" y="-62.6" font-family="Times,serif" font-size="14.00">ReactiveFormsModule</text>
</g>
<!-- ReactiveFormsModule&#45;&gt;AppModule -->
<g id="edge22" class="edge">
<title>ReactiveFormsModule&#45;&gt;AppModule</title>
<path fill="none" stroke="black" d="M3777,-84.97C3777,-106.3 3777,-138.8 3777,-138.8 3777,-138.8 2450.99,-138.8 2450.99,-138.8"/>
<polygon fill="black" stroke="black" points="2450.99,-135.3 2440.99,-138.8 2450.99,-142.3 2450.99,-135.3"/>
</g>
<!-- HttpClientModule -->
<g id="node24" class="node">
<title>HttpClientModule</title>
<polygon fill="#8dd3c7" stroke="black" points="3687.16,-84.8 3684.16,-88.8 3663.16,-88.8 3660.16,-84.8 3568.84,-84.8 3568.84,-48.8 3687.16,-48.8 3687.16,-84.8"/>
<text text-anchor="middle" x="3628" y="-62.6" font-family="Times,serif" font-size="14.00">HttpClientModule</text>
</g>
<!-- HttpClientModule&#45;&gt;AppModule -->
<g id="edge23" class="edge">
<title>HttpClientModule&#45;&gt;AppModule</title>
<path fill="none" stroke="black" d="M3628,-84.83C3628,-105.57 3628,-136.8 3628,-136.8 3628,-136.8 2450.95,-136.8 2450.95,-136.8"/>
<polygon fill="black" stroke="black" points="2450.95,-133.3 2440.95,-136.8 2450.95,-140.3 2450.95,-133.3"/>
</g>
<!-- GoogleMapsModule -->
<g id="node25" class="node">
<title>GoogleMapsModule</title>
<polygon fill="#8dd3c7" stroke="black" points="3550.88,-84.8 3547.88,-88.8 3526.88,-88.8 3523.88,-84.8 3419.12,-84.8 3419.12,-48.8 3550.88,-48.8 3550.88,-84.8"/>
<text text-anchor="middle" x="3485" y="-62.6" font-family="Times,serif" font-size="14.00">GoogleMapsModule</text>
</g>
<!-- GoogleMapsModule&#45;&gt;AppModule -->
<g id="edge24" class="edge">
<title>GoogleMapsModule&#45;&gt;AppModule</title>
<path fill="none" stroke="black" d="M3485,-85.11C3485,-104.95 3485,-133.8 3485,-133.8 3485,-133.8 2450.91,-133.8 2450.91,-133.8"/>
<polygon fill="black" stroke="black" points="2450.91,-130.3 2440.91,-133.8 2450.91,-137.3 2450.91,-130.3"/>
</g>
<!-- NgbModule -->
<g id="node26" class="node">
<title>NgbModule</title>
<polygon fill="#8dd3c7" stroke="black" points="3400.66,-84.8 3397.66,-88.8 3376.66,-88.8 3373.66,-84.8 3317.34,-84.8 3317.34,-48.8 3400.66,-48.8 3400.66,-84.8"/>
<text text-anchor="middle" x="3359" y="-62.6" font-family="Times,serif" font-size="14.00">NgbModule</text>
</g>
<!-- NgbModule&#45;&gt;AppModule -->
<g id="edge25" class="edge">
<title>NgbModule&#45;&gt;AppModule</title>
<path fill="none" stroke="black" d="M3359,-84.97C3359,-103.89 3359,-130.8 3359,-130.8 3359,-130.8 2450.87,-130.8 2450.87,-130.8"/>
<polygon fill="black" stroke="black" points="2450.87,-127.3 2440.87,-130.8 2450.87,-134.3 2450.87,-127.3"/>
</g>
<!-- AgmCoreModule.forRoot(args) -->
<g id="node27" class="node">
<title>AgmCoreModule.forRoot(args)</title>
<polygon fill="#8dd3c7" stroke="black" points="3299.47,-84.8 3296.47,-88.8 3275.47,-88.8 3272.47,-84.8 3104.53,-84.8 3104.53,-48.8 3299.47,-48.8 3299.47,-84.8"/>
<text text-anchor="middle" x="3202" y="-62.6" font-family="Times,serif" font-size="14.00">AgmCoreModule.forRoot(args)</text>
</g>
<!-- AgmCoreModule.forRoot(args)&#45;&gt;AppModule -->
<g id="edge26" class="edge">
<title>AgmCoreModule.forRoot(args)&#45;&gt;AppModule</title>
<path fill="none" stroke="black" d="M3202,-85.1C3202,-103.07 3202,-127.8 3202,-127.8 3202,-127.8 2450.76,-127.8 2450.76,-127.8"/>
<polygon fill="black" stroke="black" points="2450.76,-124.3 2440.76,-127.8 2450.76,-131.3 2450.76,-124.3"/>
</g>
</g>
</svg>
