<?xml version="1.0" encoding="UTF-8" standalone="no"?>
<!DOCTYPE svg PUBLIC "-//W3C//DTD SVG 1.1//EN"
 "http://www.w3.org/Graphics/SVG/1.1/DTD/svg11.dtd">
<!-- Generated by graphviz version 3.0.0 (20220226.1711)
 -->
<!-- Title: dependencies Pages: 1 -->
<svg width="4266pt" height="247pt"
 viewBox="0.00 0.00 4266.00 246.80" xmlns="http://www.w3.org/2000/svg" xmlns:xlink="http://www.w3.org/1999/xlink">
<g id="graph0" class="graph" transform="scale(1 1) rotate(0) translate(4 242.8)">
<title>dependencies</title>
<polygon fill="white" stroke="transparent" points="-4,4 -4,-242.8 4262,-242.8 4262,4 -4,4"/>
<text text-anchor="middle" x="2129" y="-8.2" font-family="sans-serif" font-size="14.00">dependencies</text>
<g id="clust1" class="cluster">
<title>cluster_AppModule</title>
<polygon fill="none" stroke="black" stroke-dasharray="1,5" points="8,-32.8 8,-230.8 4250,-230.8 4250,-32.8 8,-32.8"/>
</g>
<g id="clust2" class="cluster">
<title>cluster_AppModule_declarations</title>
<polygon fill="none" stroke="black" points="1169,-40.8 1169,-92.8 4242,-92.8 4242,-40.8 1169,-40.8"/>
</g>
<g id="clust21" class="cluster">
<title>cluster_AppModule_imports</title>
<polygon fill="none" stroke="black" points="16,-40.8 16,-92.8 1161,-92.8 1161,-40.8 16,-40.8"/>
</g>
<g id="clust23" class="cluster">
<title>cluster_AppModule_bootstrap</title>
<polygon fill="none" stroke="black" points="2047,-170.8 2047,-222.8 2171,-222.8 2171,-170.8 2047,-170.8"/>
</g>
<!-- AppComponent -->
<g id="node1" class="node">
<title>AppComponent</title>
<polygon fill="#ffffb3" stroke="black" points="4233.94,-84.8 4128.06,-84.8 4128.06,-48.8 4233.94,-48.8 4233.94,-84.8"/>
<text text-anchor="middle" x="4181" y="-62.6" font-family="Times,serif" font-size="14.00">AppComponent</text>
</g>
<!-- AppModule -->
<g id="node19" class="node">
<title>AppModule</title>
<polygon fill="#8dd3c7" stroke="black" points="2150.66,-149.8 2147.66,-153.8 2126.66,-153.8 2123.66,-149.8 2067.34,-149.8 2067.34,-113.8 2150.66,-113.8 2150.66,-149.8"/>
<text text-anchor="middle" x="2109" y="-127.6" font-family="Times,serif" font-size="14.00">AppModule</text>
</g>
<!-- AppComponent&#45;&gt;AppModule -->
<g id="edge1" class="edge">
<title>AppComponent&#45;&gt;AppModule</title>
<path fill="none" stroke="black" d="M4181,-85.18C4181,-109.08 4181,-147.8 4181,-147.8 4181,-147.8 2160.86,-147.8 2160.86,-147.8"/>
<polygon fill="black" stroke="black" points="2160.86,-144.3 2150.86,-147.8 2160.86,-151.3 2160.86,-144.3"/>
</g>
<!-- HomeComponent -->
<g id="node2" class="node">
<title>HomeComponent</title>
<polygon fill="#ffffb3" stroke="black" points="4110.55,-84.8 3995.45,-84.8 3995.45,-48.8 4110.55,-48.8 4110.55,-84.8"/>
<text text-anchor="middle" x="4053" y="-62.6" font-family="Times,serif" font-size="14.00">HomeComponent</text>
</g>
<!-- HomeComponent&#45;&gt;AppModule -->
<g id="edge2" class="edge">
<title>HomeComponent&#45;&gt;AppModule</title>
<path fill="none" stroke="black" d="M4053,-84.89C4053,-107.93 4053,-144.8 4053,-144.8 4053,-144.8 2160.96,-144.8 2160.96,-144.8"/>
<polygon fill="black" stroke="black" points="2160.96,-141.3 2150.96,-144.8 2160.96,-148.3 2160.96,-141.3"/>
</g>
<!-- EmployeeComponent -->
<g id="node3" class="node">
<title>EmployeeComponent</title>
<polygon fill="#ffffb3" stroke="black" points="3977.09,-84.8 3838.91,-84.8 3838.91,-48.8 3977.09,-48.8 3977.09,-84.8"/>
<text text-anchor="middle" x="3908" y="-62.6" font-family="Times,serif" font-size="14.00">EmployeeComponent</text>
</g>
<!-- EmployeeComponent&#45;&gt;AppModule -->
<g id="edge3" class="edge">
<title>EmployeeComponent&#45;&gt;AppModule</title>
<path fill="none" stroke="black" d="M3908,-84.96C3908,-107.15 3908,-141.8 3908,-141.8 3908,-141.8 2160.82,-141.8 2160.82,-141.8"/>
<polygon fill="black" stroke="black" points="2160.82,-138.3 2150.82,-141.8 2160.82,-145.3 2160.82,-138.3"/>
</g>
<!-- LoginComponent -->
<g id="node4" class="node">
<title>LoginComponent</title>
<polygon fill="#ffffb3" stroke="black" points="3821.27,-84.8 3706.73,-84.8 3706.73,-48.8 3821.27,-48.8 3821.27,-84.8"/>
<text text-anchor="middle" x="3764" y="-62.6" font-family="Times,serif" font-size="14.00">LoginComponent</text>
</g>
<!-- LoginComponent&#45;&gt;AppModule -->
<g id="edge4" class="edge">
<title>LoginComponent&#45;&gt;AppModule</title>
<path fill="none" stroke="black" d="M3764,-84.97C3764,-106.3 3764,-138.8 3764,-138.8 3764,-138.8 2160.74,-138.8 2160.74,-138.8"/>
<polygon fill="black" stroke="black" points="2160.74,-135.3 2150.74,-138.8 2160.74,-142.3 2160.74,-135.3"/>
</g>
<!-- OficinasComponent -->
<g id="node5" class="node">
<title>OficinasComponent</title>
<polygon fill="#ffffb3" stroke="black" points="3688.26,-84.8 3559.74,-84.8 3559.74,-48.8 3688.26,-48.8 3688.26,-84.8"/>
<text text-anchor="middle" x="3624" y="-62.6" font-family="Times,serif" font-size="14.00">OficinasComponent</text>
</g>
<!-- OficinasComponent&#45;&gt;AppModule -->
<g id="edge5" class="edge">
<title>OficinasComponent&#45;&gt;AppModule</title>
<path fill="none" stroke="black" d="M3624,-84.83C3624,-105.57 3624,-136.8 3624,-136.8 3624,-136.8 2160.7,-136.8 2160.7,-136.8"/>
<polygon fill="black" stroke="black" points="2160.7,-133.3 2150.7,-136.8 2160.7,-140.3 2160.7,-133.3"/>
</g>
<!-- OficinaComponent -->
<g id="node6" class="node">
<title>OficinaComponent</title>
<polygon fill="#ffffb3" stroke="black" points="3541.81,-84.8 3418.19,-84.8 3418.19,-48.8 3541.81,-48.8 3541.81,-84.8"/>
<text text-anchor="middle" x="3480" y="-62.6" font-family="Times,serif" font-size="14.00">OficinaComponent</text>
</g>
<!-- OficinaComponent&#45;&gt;AppModule -->
<g id="edge6" class="edge">
<title>OficinaComponent&#45;&gt;AppModule</title>
<path fill="none" stroke="black" d="M3480,-85.11C3480,-104.95 3480,-133.8 3480,-133.8 3480,-133.8 2160.78,-133.8 2160.78,-133.8"/>
<polygon fill="black" stroke="black" points="2160.78,-130.3 2150.78,-133.8 2160.78,-137.3 2160.78,-130.3"/>
</g>
<!-- OficinasModalityComponent -->
<g id="node7" class="node">
<title>OficinasModalityComponent</title>
<polygon fill="#ffffb3" stroke="black" points="3400.09,-84.8 3219.91,-84.8 3219.91,-48.8 3400.09,-48.8 3400.09,-84.8"/>
<text text-anchor="middle" x="3310" y="-62.6" font-family="Times,serif" font-size="14.00">OficinasModalityComponent</text>
</g>
<!-- OficinasModalityComponent&#45;&gt;AppModule -->
<g id="edge7" class="edge">
<title>OficinasModalityComponent&#45;&gt;AppModule</title>
<path fill="none" stroke="black" d="M3310,-84.97C3310,-103.89 3310,-130.8 3310,-130.8 3310,-130.8 2160.69,-130.8 2160.69,-130.8"/>
<polygon fill="black" stroke="black" points="2160.69,-127.3 2150.69,-130.8 2160.69,-134.3 2160.69,-127.3"/>
</g>
<!-- OficinaDetailComponent -->
<g id="node8" class="node">
<title>OficinaDetailComponent</title>
<polygon fill="#ffffb3" stroke="black" points="3201.52,-84.8 3044.48,-84.8 3044.48,-48.8 3201.52,-48.8 3201.52,-84.8"/>
<text text-anchor="middle" x="3123" y="-62.6" font-family="Times,serif" font-size="14.00">OficinaDetailComponent</text>
</g>
<!-- OficinaDetailComponent&#45;&gt;AppModule -->
<g id="edge8" class="edge">
<title>OficinaDetailComponent&#45;&gt;AppModule</title>
<path fill="none" stroke="black" d="M3123,-85.1C3123,-103.07 3123,-127.8 3123,-127.8 3123,-127.8 2160.96,-127.8 2160.96,-127.8"/>
<polygon fill="black" stroke="black" points="2160.96,-124.3 2150.96,-127.8 2160.96,-131.3 2160.96,-124.3"/>
</g>
<!-- EmployeeDetailComponent -->
<g id="node9" class="node">
<title>EmployeeDetailComponent</title>
<polygon fill="#ffffb3" stroke="black" points="3026.3,-84.8 2853.7,-84.8 2853.7,-48.8 3026.3,-48.8 3026.3,-84.8"/>
<text text-anchor="middle" x="2940" y="-62.6" font-family="Times,serif" font-size="14.00">EmployeeDetailComponent</text>
</g>
<!-- EmployeeDetailComponent&#45;&gt;AppModule -->
<g id="edge9" class="edge">
<title>EmployeeDetailComponent&#45;&gt;AppModule</title>
<path fill="none" stroke="black" d="M2940,-84.82C2940,-102.17 2940,-125.8 2940,-125.8 2940,-125.8 2160.78,-125.8 2160.78,-125.8"/>
<polygon fill="black" stroke="black" points="2160.78,-122.3 2150.78,-125.8 2160.78,-129.3 2160.78,-122.3"/>
</g>
<!-- OficinasFiltroComponent -->
<g id="node10" class="node">
<title>OficinasFiltroComponent</title>
<polygon fill="#ffffb3" stroke="black" points="2835.88,-84.8 2676.12,-84.8 2676.12,-48.8 2835.88,-48.8 2835.88,-84.8"/>
<text text-anchor="middle" x="2756" y="-62.6" font-family="Times,serif" font-size="14.00">OficinasFiltroComponent</text>
</g>
<!-- OficinasFiltroComponent&#45;&gt;AppModule -->
<g id="edge10" class="edge">
<title>OficinasFiltroComponent&#45;&gt;AppModule</title>
<path fill="none" stroke="black" d="M2756,-84.83C2756,-101.2 2756,-122.8 2756,-122.8 2756,-122.8 2160.95,-122.8 2160.95,-122.8"/>
<polygon fill="black" stroke="black" points="2160.95,-119.3 2150.95,-122.8 2160.95,-126.3 2160.95,-119.3"/>
</g>
<!-- AllProfilesComponent -->
<g id="node11" class="node">
<title>AllProfilesComponent</title>
<polygon fill="#ffffb3" stroke="black" points="2658.27,-84.8 2515.73,-84.8 2515.73,-48.8 2658.27,-48.8 2658.27,-84.8"/>
<text text-anchor="middle" x="2587" y="-62.6" font-family="Times,serif" font-size="14.00">AllProfilesComponent</text>
</g>
<!-- AllProfilesComponent&#45;&gt;AppModule -->
<g id="edge11" class="edge">
<title>AllProfilesComponent&#45;&gt;AppModule</title>
<path fill="none" stroke="black" d="M2587,-85.04C2587,-100.37 2587,-119.8 2587,-119.8 2587,-119.8 2161,-119.8 2161,-119.8"/>
<polygon fill="black" stroke="black" points="2161,-116.3 2151,-119.8 2161,-123.3 2161,-116.3"/>
</g>
<!-- CreateProfileComponent -->
<g id="node12" class="node">
<title>CreateProfileComponent</title>
<polygon fill="#ffffb3" stroke="black" points="2497.97,-84.8 2342.03,-84.8 2342.03,-48.8 2497.97,-48.8 2497.97,-84.8"/>
<text text-anchor="middle" x="2420" y="-62.6" font-family="Times,serif" font-size="14.00">CreateProfileComponent</text>
</g>
<!-- CreateProfileComponent&#45;&gt;AppModule -->
<g id="edge12" class="edge">
<title>CreateProfileComponent&#45;&gt;AppModule</title>
<path fill="none" stroke="black" d="M2420,-84.85C2420,-99.17 2420,-116.8 2420,-116.8 2420,-116.8 2160.94,-116.8 2160.94,-116.8"/>
<polygon fill="black" stroke="black" points="2160.94,-113.3 2150.94,-116.8 2160.94,-120.3 2160.94,-113.3"/>
</g>
<!-- CreateProfileSecundaryComponent -->
<g id="node13" class="node">
<title>CreateProfileSecundaryComponent</title>
<polygon fill="#ffffb3" stroke="black" points="2323.56,-84.8 2108.44,-84.8 2108.44,-48.8 2323.56,-48.8 2323.56,-84.8"/>
<text text-anchor="middle" x="2216" y="-62.6" font-family="Times,serif" font-size="14.00">CreateProfileSecundaryComponent</text>
</g>
<!-- CreateProfileSecundaryComponent&#45;&gt;AppModule -->
<g id="edge13" class="edge">
<title>CreateProfileSecundaryComponent&#45;&gt;AppModule</title>
<path fill="none" stroke="black" d="M2129.65,-84.91C2129.65,-84.91 2129.65,-103.79 2129.65,-103.79"/>
<polygon fill="black" stroke="black" points="2126.15,-103.79 2129.65,-113.79 2133.15,-103.79 2126.15,-103.79"/>
</g>
<!-- ServiciosoficinasComponent -->
<g id="node14" class="node">
<title>ServiciosoficinasComponent</title>
<polygon fill="#ffffb3" stroke="black" points="2090.75,-84.8 1913.25,-84.8 1913.25,-48.8 2090.75,-48.8 2090.75,-84.8"/>
<text text-anchor="middle" x="2002" y="-62.6" font-family="Times,serif" font-size="14.00">ServiciosoficinasComponent</text>
</g>
<!-- ServiciosoficinasComponent&#45;&gt;AppModule -->
<g id="edge14" class="edge">
<title>ServiciosoficinasComponent&#45;&gt;AppModule</title>
<path fill="none" stroke="black" d="M2079.02,-84.91C2079.02,-84.91 2079.02,-103.79 2079.02,-103.79"/>
<polygon fill="black" stroke="black" points="2075.52,-103.79 2079.02,-113.79 2082.52,-103.79 2075.52,-103.79"/>
</g>
<!-- CarouselimagenesComponent -->
<g id="node15" class="node">
<title>CarouselimagenesComponent</title>
<polygon fill="#ffffb3" stroke="black" points="1894.97,-84.8 1711.03,-84.8 1711.03,-48.8 1894.97,-48.8 1894.97,-84.8"/>
<text text-anchor="middle" x="1803" y="-62.6" font-family="Times,serif" font-size="14.00">CarouselimagenesComponent</text>
</g>
<!-- CarouselimagenesComponent&#45;&gt;AppModule -->
<g id="edge15" class="edge">
<title>CarouselimagenesComponent&#45;&gt;AppModule</title>
<path fill="none" stroke="black" d="M1803,-84.85C1803,-99.17 1803,-116.8 1803,-116.8 1803,-116.8 2057.09,-116.8 2057.09,-116.8"/>
<polygon fill="black" stroke="black" points="2057.09,-120.3 2067.09,-116.8 2057.09,-113.3 2057.09,-120.3"/>
</g>
<!-- FormularioComponent -->
<g id="node16" class="node">
<title>FormularioComponent</title>
<polygon fill="#ffffb3" stroke="black" points="1693.32,-84.8 1548.68,-84.8 1548.68,-48.8 1693.32,-48.8 1693.32,-84.8"/>
<text text-anchor="middle" x="1621" y="-62.6" font-family="Times,serif" font-size="14.00">FormularioComponent</text>
</g>
<!-- FormularioComponent&#45;&gt;AppModule -->
<g id="edge16" class="edge">
<title>FormularioComponent&#45;&gt;AppModule</title>
<path fill="none" stroke="black" d="M1621,-85.04C1621,-100.37 1621,-119.8 1621,-119.8 1621,-119.8 2056.97,-119.8 2056.97,-119.8"/>
<polygon fill="black" stroke="black" points="2056.97,-123.3 2066.97,-119.8 2056.97,-116.3 2056.97,-123.3"/>
</g>
<!-- GooglemapsComponent -->
<g id="node17" class="node">
<title>GooglemapsComponent</title>
<polygon fill="#ffffb3" stroke="black" points="1531.1,-84.8 1378.9,-84.8 1378.9,-48.8 1531.1,-48.8 1531.1,-84.8"/>
<text text-anchor="middle" x="1455" y="-62.6" font-family="Times,serif" font-size="14.00">GooglemapsComponent</text>
</g>
<!-- GooglemapsComponent&#45;&gt;AppModule -->
<g id="edge17" class="edge">
<title>GooglemapsComponent&#45;&gt;AppModule</title>
<path fill="none" stroke="black" d="M1455,-84.83C1455,-101.2 1455,-122.8 1455,-122.8 1455,-122.8 2057.09,-122.8 2057.09,-122.8"/>
<polygon fill="black" stroke="black" points="2057.09,-126.3 2067.09,-122.8 2057.09,-119.3 2057.09,-126.3"/>
</g>
<!-- OficinasBusquedaComponent -->
<g id="node18" class="node">
<title>OficinasBusquedaComponent</title>
<polygon fill="#ffffb3" stroke="black" points="1360.97,-84.8 1177.03,-84.8 1177.03,-48.8 1360.97,-48.8 1360.97,-84.8"/>
<text text-anchor="middle" x="1269" y="-62.6" font-family="Times,serif" font-size="14.00">OficinasBusquedaComponent</text>
</g>
<!-- OficinasBusquedaComponent&#45;&gt;AppModule -->
<g id="edge18" class="edge">
<title>OficinasBusquedaComponent&#45;&gt;AppModule</title>
<path fill="none" stroke="black" d="M1269,-84.82C1269,-102.17 1269,-125.8 1269,-125.8 1269,-125.8 2057.06,-125.8 2057.06,-125.8"/>
<polygon fill="black" stroke="black" points="2057.06,-129.3 2067.06,-125.8 2057.06,-122.3 2057.06,-129.3"/>
</g>
<!-- AppComponent  -->
<g id="node28" class="node">
<title>AppComponent </title>
<polygon fill="#80b1d3" stroke="black" points="2163.44,-214.8 2054.56,-214.8 2054.56,-178.8 2163.44,-178.8 2163.44,-214.8"/>
<text text-anchor="middle" x="2109" y="-192.6" font-family="Times,serif" font-size="14.00">AppComponent </text>
</g>
<!-- AppModule&#45;&gt;AppComponent  -->
<g id="edge27" class="edge">
<title>AppModule&#45;&gt;AppComponent </title>
<path fill="none" stroke="black" stroke-dasharray="1,5" d="M2109,-149.91C2109,-149.91 2109,-168.79 2109,-168.79"/>
<polygon fill="black" stroke="black" points="2105.5,-168.79 2109,-178.79 2112.5,-168.79 2105.5,-168.79"/>
</g>
<!-- BrowserModule -->
<g id="node20" class="node">
<title>BrowserModule</title>
<polygon fill="#8dd3c7" stroke="black" points="1153.49,-84.8 1150.49,-88.8 1129.49,-88.8 1126.49,-84.8 1046.51,-84.8 1046.51,-48.8 1153.49,-48.8 1153.49,-84.8"/>
<text text-anchor="middle" x="1100" y="-62.6" font-family="Times,serif" font-size="14.00">BrowserModule</text>
</g>
<!-- BrowserModule&#45;&gt;AppModule -->
<g id="edge19" class="edge">
<title>BrowserModule&#45;&gt;AppModule</title>
<path fill="none" stroke="black" d="M1100,-85.1C1100,-103.07 1100,-127.8 1100,-127.8 1100,-127.8 2057.25,-127.8 2057.25,-127.8"/>
<polygon fill="black" stroke="black" points="2057.25,-131.3 2067.25,-127.8 2057.25,-124.3 2057.25,-131.3"/>
</g>
<!-- AppRoutingModule -->
<g id="node21" class="node">
<title>AppRoutingModule</title>
<polygon fill="#8dd3c7" stroke="black" points="1028.28,-84.8 1025.28,-88.8 1004.28,-88.8 1001.28,-84.8 899.72,-84.8 899.72,-48.8 1028.28,-48.8 1028.28,-84.8"/>
<text text-anchor="middle" x="964" y="-62.6" font-family="Times,serif" font-size="14.00">AppRoutingModule</text>
</g>
<!-- AppRoutingModule&#45;&gt;AppModule -->
<g id="edge20" class="edge">
<title>AppRoutingModule&#45;&gt;AppModule</title>
<path fill="none" stroke="black" d="M964,-84.97C964,-103.89 964,-130.8 964,-130.8 964,-130.8 2057.23,-130.8 2057.23,-130.8"/>
<polygon fill="black" stroke="black" points="2057.23,-134.3 2067.23,-130.8 2057.23,-127.3 2057.23,-134.3"/>
</g>
<!-- FormsModule -->
<g id="node22" class="node">
<title>FormsModule</title>
<polygon fill="#8dd3c7" stroke="black" points="881.84,-84.8 878.84,-88.8 857.84,-88.8 854.84,-84.8 786.16,-84.8 786.16,-48.8 881.84,-48.8 881.84,-84.8"/>
<text text-anchor="middle" x="834" y="-62.6" font-family="Times,serif" font-size="14.00">FormsModule</text>
</g>
<!-- FormsModule&#45;&gt;AppModule -->
<g id="edge21" class="edge">
<title>FormsModule&#45;&gt;AppModule</title>
<path fill="none" stroke="black" d="M834,-85.11C834,-104.95 834,-133.8 834,-133.8 834,-133.8 2057.3,-133.8 2057.3,-133.8"/>
<polygon fill="black" stroke="black" points="2057.3,-137.3 2067.3,-133.8 2057.3,-130.3 2057.3,-137.3"/>
</g>
<!-- ReactiveFormsModule -->
<g id="node23" class="node">
<title>ReactiveFormsModule</title>
<polygon fill="#8dd3c7" stroke="black" points="768.31,-84.8 765.31,-88.8 744.31,-88.8 741.31,-84.8 623.69,-84.8 623.69,-48.8 768.31,-48.8 768.31,-84.8"/>
<text text-anchor="middle" x="696" y="-62.6" font-family="Times,serif" font-size="14.00">ReactiveFormsModule</text>
</g>
<!-- ReactiveFormsModule&#45;&gt;AppModule -->
<g id="edge22" class="edge">
<title>ReactiveFormsModule&#45;&gt;AppModule</title>
<path fill="none" stroke="black" d="M696,-84.83C696,-105.57 696,-136.8 696,-136.8 696,-136.8 2057.1,-136.8 2057.1,-136.8"/>
<polygon fill="black" stroke="black" points="2057.1,-140.3 2067.1,-136.8 2057.1,-133.3 2057.1,-140.3"/>
</g>
<!-- HttpClientModule -->
<g id="node24" class="node">
<title>HttpClientModule</title>
<polygon fill="#8dd3c7" stroke="black" points="606.16,-84.8 603.16,-88.8 582.16,-88.8 579.16,-84.8 487.84,-84.8 487.84,-48.8 606.16,-48.8 606.16,-84.8"/>
<text text-anchor="middle" x="547" y="-62.6" font-family="Times,serif" font-size="14.00">HttpClientModule</text>
</g>
<!-- HttpClientModule&#45;&gt;AppModule -->
<g id="edge23" class="edge">
<title>HttpClientModule&#45;&gt;AppModule</title>
<path fill="none" stroke="black" d="M547,-84.97C547,-106.3 547,-138.8 547,-138.8 547,-138.8 2057.22,-138.8 2057.22,-138.8"/>
<polygon fill="black" stroke="black" points="2057.22,-142.3 2067.22,-138.8 2057.22,-135.3 2057.22,-142.3"/>
</g>
<!-- GoogleMapsModule -->
<g id="node25" class="node">
<title>GoogleMapsModule</title>
<polygon fill="#8dd3c7" stroke="black" points="469.88,-84.8 466.88,-88.8 445.88,-88.8 442.88,-84.8 338.12,-84.8 338.12,-48.8 469.88,-48.8 469.88,-84.8"/>
<text text-anchor="middle" x="404" y="-62.6" font-family="Times,serif" font-size="14.00">GoogleMapsModule</text>
</g>
<!-- GoogleMapsModule&#45;&gt;AppModule -->
<g id="edge24" class="edge">
<title>GoogleMapsModule&#45;&gt;AppModule</title>
<path fill="none" stroke="black" d="M404,-84.96C404,-107.15 404,-141.8 404,-141.8 404,-141.8 2057.28,-141.8 2057.28,-141.8"/>
<polygon fill="black" stroke="black" points="2057.28,-145.3 2067.28,-141.8 2057.28,-138.3 2057.28,-145.3"/>
</g>
<!-- NgbModule -->
<g id="node26" class="node">
<title>NgbModule</title>
<polygon fill="#8dd3c7" stroke="black" points="319.66,-84.8 316.66,-88.8 295.66,-88.8 292.66,-84.8 236.34,-84.8 236.34,-48.8 319.66,-48.8 319.66,-84.8"/>
<text text-anchor="middle" x="278" y="-62.6" font-family="Times,serif" font-size="14.00">NgbModule</text>
</g>
<!-- NgbModule&#45;&gt;AppModule -->
<g id="edge25" class="edge">
<title>NgbModule&#45;&gt;AppModule</title>
<path fill="none" stroke="black" d="M278,-84.89C278,-107.93 278,-144.8 278,-144.8 278,-144.8 2057.32,-144.8 2057.32,-144.8"/>
<polygon fill="black" stroke="black" points="2057.32,-148.3 2067.32,-144.8 2057.32,-141.3 2057.32,-148.3"/>
</g>
<!-- AgmCoreModule.forRoot(args) -->
<g id="node27" class="node">
<title>AgmCoreModule.forRoot(args)</title>
<polygon fill="#8dd3c7" stroke="black" points="218.47,-84.8 215.47,-88.8 194.47,-88.8 191.47,-84.8 23.53,-84.8 23.53,-48.8 218.47,-48.8 218.47,-84.8"/>
<text text-anchor="middle" x="121" y="-62.6" font-family="Times,serif" font-size="14.00">AgmCoreModule.forRoot(args)</text>
</g>
<!-- AgmCoreModule.forRoot(args)&#45;&gt;AppModule -->
<g id="edge26" class="edge">
<title>AgmCoreModule.forRoot(args)&#45;&gt;AppModule</title>
<path fill="none" stroke="black" d="M121,-85.18C121,-109.08 121,-147.8 121,-147.8 121,-147.8 2057.02,-147.8 2057.02,-147.8"/>
<polygon fill="black" stroke="black" points="2057.02,-151.3 2067.02,-147.8 2057.02,-144.3 2057.02,-151.3"/>
</g>
</g>
</svg>
